HIERARCHY
ROOT Hips
{
 OFFSET 0.000000 0.000000 0.000000
 CHANNELS 6 Xposition Yposition Zposition Yrotation Xrotation Zrotation
 JOINT Chest
 {
  OFFSET 0.000000 9.585900 0.002600
  CHANNELS 3 Yrotation Xrotation Zrotation
  JOINT Chest2
  {
   OFFSET 0.000000 9.601200 -0.005300
   CHANNELS 3 Yrotation Xrotation Zrotation
   JOINT Chest3
   {
    OFFSET 0.000000 9.561800 0.000000
    CHANNELS 3 Yrotation Xrotation Zrotation
    JOINT Chest4
    {
     OFFSET 0.000000 9.552100 0.000000
     CHANNELS 3 Yrotation Xrotation Zrotation
     JOINT Neck
     {
      OFFSET 0.000000 14.453000 0.000000
      CHANNELS 3 Yrotation Xrotation Zrotation
      JOINT Head
      {
       OFFSET 0.000000 8.936500 -0.011300
       CHANNELS 3 Yrotation Xrotation Zrotation
       End Site
       {
        OFFSET 0.000000 17.073600 -0.006000
       }
      }
     }
     JOINT RightCollar
     {
      OFFSET -2.921100 9.558500 0.000000
      CHANNELS 3 Yrotation Xrotation Zrotation
      JOINT RightShoulder
      {
       OFFSET -13.519700 0.000000 0.000000
       CHANNELS 3 Yrotation Xrotation Zrotation
       JOINT RightElbow
       {
        OFFSET 0.000000 -29.696600 0.000000
        CHANNELS 3 Yrotation Xrotation Zrotation
        JOINT RightWrist
        {
         OFFSET 0.000000 -24.004700 0.000000
         CHANNELS 3 Yrotation Xrotation Zrotation
         End Site
         {
          OFFSET 0.000000 -17.728500 0.000000
         }
        }
       }
      }
     }
     JOINT LeftCollar
     {
      OFFSET 2.921100 9.558500 0.000000
      CHANNELS 3 Yrotation Xrotation Zrotation
      JOINT LeftShoulder
      {
       OFFSET 13.519700 0.000000 0.000000
       CHANNELS 3 Yrotation Xrotation Zrotation
       JOINT LeftElbow
       {
        OFFSET 0.000000 -29.696600 0.000000
        CHANNELS 3 Yrotation Xrotation Zrotation
        JOINT LeftWrist
        {
         OFFSET 0.000000 -24.004700 0.000000
         CHANNELS 3 Yrotation Xrotation Zrotation
         End Site
         {
          OFFSET 0.000000 -17.728500 0.000000
         }
        }
       }
      }
     }
    }
   }
  }
 }
 JOINT RightHip
 {
  OFFSET -7.771700 -0.012900 -0.001300
  CHANNELS 3 Yrotation Xrotation Zrotation
  JOINT RightKnee
  {
   OFFSET 0.000000 -40.869800 0.001200
   CHANNELS 3 Yrotation Xrotation Zrotation
   JOINT RightAnkle
   {
    OFFSET 0.000000 -39.717900 0.002100
    CHANNELS 3 Yrotation Xrotation Zrotation
    JOINT RightToe
    {
     OFFSET 0.000000 -4.965400 11.033500
     CHANNELS 3 Yrotation Xrotation Zrotation
     End Site
     {
      OFFSET 0.000000 -1.423100 5.872300
     }
    }
   }
  }
 }
 JOINT LeftHip
 {
  OFFSET 7.771700 -0.012900 -0.001300
  CHANNELS 3 Yrotation Xrotation Zrotation
  JOINT LeftKnee
  {
   OFFSET 0.000000 -40.869800 0.001200
   CHANNELS 3 Yrotation Xrotation Zrotation
   JOINT LeftAnkle
   {
    OFFSET 0.000000 -39.717900 0.002100
    CHANNELS 3 Yrotation Xrotation Zrotation
    JOINT LeftToe
    {
     OFFSET 0.000000 -4.965400 11.033500
     CHANNELS 3 Yrotation Xrotation Zrotation
     End Site
     {
      OFFSET 0.000000 -1.423100 5.872300
     }
    }
   }
  }
 }
}
MOTION
Frames: 11
Frame Time: 0.008333
-23.350119 62.104203 11.887843 176.603097 -49.105821 -0.679269 4.077954 27.193159 1.324739 0.598237 4.716788 0.174947 0.964493 7.410571 0.298809 3.073361 22.022830 1.309629 0.505428 12.610710 1.573282 0.314069 -12.371694 2.783320 6.746027 4.377968 4.023321 -7.027848 -10.309817 -13.102261 -86.043780 -48.592481 133.612384 3.403671 6.031038 9.007609 -8.528155 2.667131 0.752231 2.463167 -9.104254 13.955697 106.899102 -67.192426 -141.114236 9.950619 2.544812 -26.452002 2.551040 -17.980853 -6.041174 -1.090550 62.066772 -4.632048 1.371725 -9.119594 9.992458 0.141965 -0.400013 0.069504 -3.705806 -14.960436 2.510991 25.635732 77.054697 25.973013 0.884591 -11.961925 -3.276228 0.209217 0.592354 0.083884
-23.351222 62.102794 11.888232 176.604177 -49.112859 -0.672555 4.085196 27.141828 1.321701 0.590588 4.749694 0.176573 0.972210 7.367276 0.296522 3.080658 22.006960 1.312673 0.611360 12.665124 1.536944 0.531310 -12.272924 2.670145 6.748073 4.457805 4.108957 -6.784851 -10.579276 -13.307063 -84.774700 -47.996728 132.920371 3.137535 6.209079 10.036052 -8.541483 2.736487 0.710977 2.251954 -9.362525 14.091524 104.441877 -66.531246 -139.463537 10.011422 2.791590 -27.172962 2.551779 -17.974334 -6.052585 -1.081227 62.068549 -4.620136 1.368531 -9.128585 9.990943 0.141852 -0.396690 0.067479 -3.711755 -14.955595 2.495720 25.680055 77.052523 26.016016 0.894304 -11.962388 -3.275296 0.200435 0.593385 0.077723
-23.352115 62.102964 11.887103 176.601875 -49.136066 -0.665190 4.090360 27.140219 1.318840 0.596047 4.718163 0.176075 0.974487 7.349680 0.295971 3.080656 22.036397 1.320189 0.730849 12.681579 1.496313 0.759017 -12.158993 2.562216 6.753929 4.496789 4.170394 -6.509348 -10.849903 -13.508329 -83.558879 -47.380559 132.245131 2.918466 6.368689 10.953539 -8.552965 2.761338 0.663146 2.034881 -9.620101 14.238067 102.059257 -65.835544 -137.884404 10.066999 3.015123 -27.844380 2.549832 -17.950581 -6.059146 -1.069627 62.069800 -4.610627 1.363829 -9.138563 9.992615 0.144188 -0.392287 0.064455 -3.716941 -14.931694 2.478138 25.698968 77.052234 26.038999 0.908691 -11.965484 -3.281013 0.195346 0.594915 0.073504
-23.351047 62.102958 11.886175 176.600777 -49.160952 -0.672063 4.110285 27.096703 1.332879 0.594784 4.724479 0.177626 0.975908 7.334347 0.295145 3.094575 21.996637 1.320936 0.843835 12.772198 1.472161 0.993615 -12.035258 2.461053 6.750470 4.604228 4.251839 -6.206347 -11.123193 -13.718012 -82.370791 -46.737441 131.576891 2.725031 6.505374 11.769027 -8.589019 2.854899 0.612443 1.816457 -9.876396 14.387026 99.764137 -65.119366 -136.387205 10.118820 3.209107 -28.473696 2.543062 -17.927058 -6.050395 -1.060448 62.071323 -4.604126 1.365748 -9.138142 9.993556 0.138415 -0.399069 0.061595 -3.724147 -14.904888 2.471691 25.698156 77.054797 26.057064 0.915426 -11.973920 -3.303070 0.200428 0.596647 0.079902
-23.352203 62.102830 11.885052 176.598905 -49.188660 -0.666683 4.126633 27.054410 1.334711 0.589189 4.730433 0.177547 0.974036 7.359722 0.298393 3.114955 21.919875 1.314832 0.958747 12.865333 1.452729 1.228218 -11.906524 2.366786 6.742446 4.710681 4.320806 -5.875279 -11.397654 -13.922461 -81.189162 -46.066049 130.908419 2.530940 6.617683 12.499073 -8.630743 2.951823 0.575049 1.587006 -10.137605 14.518912 97.578021 -64.403534 -134.972302 10.179505 3.375984 -29.082256 2.544515 -17.899149 -6.056464 -1.053233 62.071967 -4.596260 1.366979 -9.140260 9.994073 0.133692 -0.399839 0.060224 -3.726645 -14.875975 2.456229 25.716829 77.051640 26.082382 0.923720 -11.975799 -3.311727 0.197441 0.595631 0.081389
-23.354156 62.102936 11.883505 176.602595 -49.222297 -0.662123 4.129835 27.060140 1.331613 0.597851 4.694017 0.176673 0.967525 7.385873 0.300870 3.129926 21.869006 1.311246 1.077012 12.936187 1.431341 1.462005 -11.776184 2.277911 6.727604 4.794637 4.359277 -5.516381 -11.675474 -14.110311 -80.011491 -45.381616 130.242824 2.300313 6.705282 13.153838 -8.659484 3.035096 0.565084 1.334983 -10.408969 14.619389 95.513787 -63.704888 -133.629737 10.258909 3.522410 -29.698318 2.539950 -17.865066 -6.065949 -1.049269 62.073325 -4.590089 1.360351 -9.142504 9.993420 0.137484 -0.399529 0.058022 -3.730980 -14.841218 2.436274 25.742234 77.047322 26.113802 0.931347 -11.978566 -3.319300 0.192609 0.595512 0.082263
-23.355881 62.106407 11.878915 176.624534 -49.286564 -0.672802 4.123538 27.096495 1.332420 0.617655 4.610337 0.173888 0.970083 7.369110 0.300130 3.127721 21.914256 1.320795 1.196598 13.005527 1.413031 1.696823 -11.648550 2.194713 6.736183 4.862590 4.429559 -5.158396 -11.952925 -14.331378 -78.837864 -44.709116 129.583387 2.003823 6.756130 13.732627 -8.704086 3.080581 0.513588 1.078298 -10.646763 14.758761 93.561234 -63.027939 -132.351021 10.358701 3.653684 -30.316530 2.524194 -17.798546 -6.073311 -1.054415 62.077229 -4.593656 1.369326 -9.133170 10.001347 0.135496 -0.417102 0.049772 -3.744034 -14.773409 2.419057 25.745525 77.045239 26.125148 0.924876 -11.981069 -3.323629 0.205274 0.591443 0.082768
-23.357600 62.106743 11.876841 176.628424 -49.331032 -0.671352 4.134788 27.083476 1.336338 0.607829 4.651865 0.175078 0.986388 7.300775 0.291931 3.126566 21.941027 1.327542 1.320398 13.055798 1.391778 1.930195 -11.525550 2.119197 6.760450 4.897889 4.495164 -4.801792 -12.227986 -14.553447 -77.648618 -44.014066 128.922542 1.671534 6.785992 14.222737 -8.748113 3.095768 0.463138 0.818550 -10.877454 14.888707 91.723951 -62.376813 -131.140102 10.496304 3.772731 -30.923862 2.521899 -17.753561 -6.078081 -1.052595 62.078653 -4.592128 1.371681 -9.130995 10.004588 0.142040 -0.420621 0.050190 -3.746373 -14.727502 2.405585 25.758821 77.043884 26.142474 0.927668 -11.985917 -3.329323 0.208310 0.592808 0.084557
-23.360686 62.105769 11.875596 176.626911 -49.370320 -0.657999 4.143912 27.067305 1.327046 0.608800 4.648138 0.174601 0.990667 7.298588 0.289797 3.119787 21.984036 1.340028 1.449652 13.072902 1.361095 2.160822 -11.405049 2.052207 6.828293 4.871407 4.568545 -4.469990 -12.484290 -14.795335 -76.445645 -43.244959 128.266669 1.355441 6.823578 14.616624 -8.783507 3.072473 0.407312 0.556824 -11.109162 15.014701 89.986120 -61.739715 -129.985029 10.690653 3.870815 -31.500025 2.523417 -17.715421 -6.094085 -1.045378 62.081821 -4.583568 1.373709 -9.133584 10.002770 0.142817 -0.418296 0.052571 -3.754223 -14.686793 2.369957 25.843366 77.034450 26.227356 0.960578 -11.995222 -3.333458 0.185966 0.601071 0.073981
-23.360718 62.105315 11.873946 176.636101 -49.418429 -0.670461 4.172579 27.006376 1.340187 0.611228 4.643306 0.173281 0.976833 7.352368 0.298224 3.133049 21.975256 1.338074 1.562772 13.141852 1.356552 2.392862 -11.285388 1.991500 6.867918 4.893225 4.647294 -4.121038 -12.736470 -15.015805 -75.262566 -42.421915 127.632573 1.074292 6.859626 14.938376 -8.847376 3.096351 0.365094 0.309820 -11.336810 15.136328 88.306405 -61.083818 -128.872338 10.915903 3.944636 -31.996083 2.515312 -17.669001 -6.093733 -1.057935 62.085303 -4.586890 1.396471 -9.129717 10.003327 0.134862 -0.422194 0.052440 -3.763744 -14.638989 2.361531 25.801838 77.045288 26.206488 0.967494 -12.005527 -3.356161 0.198421 0.596316 0.084483
-23.362721 62.105275 11.871661 176.649449 -49.474468 -0.673433 4.174084 27.009971 1.340490 0.611304 4.642084 0.172208 0.975404 7.363613 0.297954 3.145184 21.899349 1.311718 1.680845 13.265910 1.377785 2.629427 -11.166635 1.934381 6.904004 4.968974 4.739169 -3.759239 -12.984411 -15.225680 -74.133645 -41.589074 127.037869 0.824528 6.895395 15.224785 -8.931272 3.143938 0.295521 0.080191 -11.531286 15.289348 86.666737 -60.393785 -127.802885 11.129233 3.999468 -32.391103 2.509128 -17.614318 -6.102018 -1.058063 62.090989 -4.583702 1.393108 -9.122758 10.007283 0.139823 -0.428934 0.050280 -3.773189 -14.582925 2.341975 25.791475 77.048349 26.204087 0.973164 -12.011844 -3.365035 0.201143 0.593165 0.088519
